<?xml version="1.0" standalone="no"?>
<!DOCTYPE svg PUBLIC "-//W3C//DTD SVG 1.1//EN" "http://www.w3.org/Graphics/SVG/1.1/DTD/svg11.dtd" >
<svg xmlns="http://www.w3.org/2000/svg" xmlns:svg="http://www.w3.org/2000/svg" xmlns:xlink="http://www.w3.org/1999/xlink" viewBox="0 0 1024 1024"><path d="M65.4 268.53Q54.16 262.41 124.29 210.65Q110.54 228.69 173.24 238.12L265.25 235.19V193.76Q280.52 198.75 291.31 203.35Q278.32 206.89 264.3 174.3Q260.65 206.86 273.65 172.06Q226.04 205.75 214.12 191.34Q196.69 186.7 146.28 193.53Q157.55 213.42 150.15 215.45Q114.29 182.33 112.17 146.54Q103.3 156.72 137.62 158.44Q136.66 109.74 167.06 130.41Q181.02 126.33 279.19 87.06Q359.31 87.21 456.33 75.77Q481.22 81.72 450.32 92.93Q501.38 74.13 466.58 87.23Q494.2 97.01 507.69 118.78Q488.84 84.03 495.54 101.46Q505.62 142.57 527.46 126.29Q514.52 117.21 520.72 146.26Q457.04 179.9 410.09 144L361.94 152.25V207.72L437.14 232.12Q499.64 253.04 533.3 252.42Q534.06 266.05 546.42 259.01Q535.29 261.96 532.07 250.11Q552.03 282.2 543.15 277.97Q546.35 295.96 504.72 309.2Q519.86 311.77 447.65 282.21Q384.04 296.41 387.45 286.48Q372.69 313.97 364.77 291.99Q340.45 288.95 384.55 333.63Q353.72 299.89 391.23 309.06Q402.55 320.09 461.71 306.45Q478.06 300.35 505.57 325.97Q508.79 316.08 546.64 332.64Q534.89 336.37 539.34 360.66Q521.7 378.56 520.59 449.33Q517.64 497.56 503.82 532.87L515.66 575.49H411.58Q399.64 573.01 359.68 542.23Q349.52 574.48 358.52 585.06Q342.85 543.07 383 547.64Q361.29 583.55 359.66 599.04Q369.97 565.89 392.81 606.59Q475.91 571.3 480.08 604.23Q515.84 571.65 501.43 600.96Q482.77 620.38 474.35 634.84Q501.42 646.42 461.88 639.52Q458.62 659.52 409.44 637.61Q362.87 643.14 355.82 667.62Q369.59 662.49 354.89 693.42Q351.53 670.17 364.57 693.55Q343.85 672.73 340.4 682.59Q357.75 682.74 385.03 687.93Q434.9 674.52 473.37 678.84Q537.81 690.15 541.63 708.77Q557 706.17 580.73 740.43Q561.85 730.08 555.61 725.86Q550.06 738.92 569.02 736.13Q503.97 748.94 437.61 741.23Q373.71 777.62 236.18 779Q110.49 750.39 76.43 740.13Q81.06 737.33 56.77 744.42Q64.76 733.33 97.49 740.8Q67.3 689.08 93.33 711.95Q113.81 700.43 129.63 666.31Q130.97 699.68 119.5 675.99Q181.9 673.94 177.99 702.72Q208.63 701.54 249.26 665.52Q280.72 688.89 263.19 672.36Q298.34 690.59 311.02 672.58Q301.7 647.27 313.5 682.73Q303.6 645.46 285.49 678.5Q276.05 645.22 266.14 655.54Q228.6 630.52 218.18 656.59Q213.54 641.73 209.97 641.67Q174.18 671.76 142.39 637.85Q155.36 631.14 133.45 623.11Q115.29 618.09 167.28 588.24Q149.94 581.23 205.68 601.72Q221.94 558.56 207.81 601.78Q259.85 563.1 302.04 567.13Q267.21 589.84 298.13 556.9Q278.34 550.54 280.44 588.28Q279.08 536.85 282.58 564.91Q261.54 576.8 232.88 551.76Q218.18 540.92 224.43 559.36Q148.75 542.16 143.85 515.41Q141.43 522.52 107.49 452.1Q129.59 431.97 119.08 374.04Q120.87 363.86 130.64 367.79Q105.57 319.95 119.64 307.05Q149.81 312.57 172.75 304.99Q188.76 299.07 202.38 331.13Q257.08 300.13 263.31 322.56Q283.82 324.69 283.61 315.02L289.14 301.77Q291.19 305.12 269.18 313.45Q296.17 306.96 244.77 319.44Q260.97 316.59 205.42 298.65Q167.15 298.91 129.88 273.46Q105.51 304.53 75.34 309.15Q66.91 305.99 59.32 253.17Q64.82 260.38 68.93 279.04ZM579.87 313.16Q598.07 307.74 639.85 311.8H677.06L700.41 228.71Q706.49 180.06 682.64 133.96Q679.76 129.24 700.57 106.19Q691.18 136.59 734.84 134.09Q723.57 135.13 708.8 93.74Q729.87 125.56 769.29 113.39Q772.9 132.09 754.18 135.76Q741.24 141.59 763.68 162.36Q765.42 216.25 755.24 238.67L749.44 279.94L831.79 293.43Q891.14 286 911.1 300.01Q924.09 318.19 933.47 318.06Q943.85 303.96 948.17 320.48Q941.45 350.46 936.11 336.8Q950.63 388.7 965.62 433.92Q953.99 593.26 896.56 755.02Q899.18 855.8 878.61 893.21Q874.79 901.42 865.64 929.41Q836.18 909.6 849.6 916.2Q816.85 891.19 762.95 867.76Q758.87 866.76 763.65 829.57Q731.27 834.75 773.94 828Q767.87 790.68 747.09 803.02Q794.3 791.02 798.77 803.02Q789.14 787.02 779.55 791.19Q774.59 796.59 827.73 826.05Q815.66 833 833.23 812.45Q832.12 837.42 815.2 806.49Q816.55 828.79 817.1 832.73Q843.62 780.14 839.08 643.81Q876.96 431.34 888.54 396.34Q865.01 398.26 847.12 366.04Q856.68 399.18 803.06 401.89H767.67L744.64 417.59Q751.45 441.64 749.45 438.09Q746.52 476.85 711.68 537.72Q702.83 642.28 684.54 667.05Q664.12 766.85 650.37 749.99Q635.2 767.04 618.21 781.17Q625.14 765.75 645.47 772.88Q646.7 783.62 615.84 741.06Q594.19 759.1 598.46 723.24Q598.63 718.57 591.56 716.65Q606.04 723.3 607.57 641.96Q620.83 617.99 619.4 625.32Q628.55 618.33 653.78 594.95Q628.55 539.1 642.38 475.47Q666.21 450.89 681 413.74L681.47 375.75L626.09 372.95Q612.95 355.86 591.5 379.14Q574.65 361.48 596.16 358.22Q592.69 334.29 603.86 310.57ZM367.57 422.56V486.95L446.67 510.26L479.48 452.9Q487.08 435.02 477.5 412.16Q476 418 470.8 407.27Q446.99 401.65 449.71 392.38Q412.9 382.49 391.36 397.67Q374.94 374.53 353.65 372.92Q355.05 367.88 337.61 399.59Q348.47 404.51 338.52 452.41ZM88.65 889Q71.58 886.18 93.27 852.31Q93.93 863.98 99.02 838.17Q120.42 831.41 143.76 812.07Q131.33 786.85 136.87 791.1Q148.65 771.25 153.15 782.84Q166.91 796.04 197.3 791.2Q203 784.08 164.3 829.46Q165.05 810.54 205.93 822.39Q184.44 812.6 163.16 848.88Q176.02 895.25 132.52 937.92Q127.51 912.74 125.75 940.85Q127.06 936.51 116.99 903.38Q102.36 904.6 114.16 902.44Q108.01 917.09 71.91 877.24ZM324.59 778.07Q340.52 784.24 327.77 799.15Q351.62 801.39 344.18 790.02Q384.4 772.28 419.47 824.24Q409.24 837.64 431.11 858.01Q412.31 826.09 413.86 837.3Q465.72 891.43 463.25 882.27Q452.1 902.47 444.46 900.08Q449.74 891.7 411.65 891.23Q421.06 893.02 368.29 909.64Q372.98 906.48 347.38 906.45Q379.55 901.34 324.81 861.04Q324.81 853.02 347.68 818.63Q306.34 793.48 335.61 787.4Q305.84 790.1 347.04 773.51ZM235.11 814.42Q215.67 784.95 233.25 799.34Q252.88 786.11 248.85 780.67Q275.51 800.91 247.78 802.52Q266.56 830.87 284.32 835.85Q296 871.66 280.01 886.74Q274.38 891.32 273.34 900.83Q301.18 938.76 274.11 922Q291.42 905.13 264.99 937.96Q275.01 935.02 228.01 897.62Q253.22 899.86 245.77 880.17Q227.46 865.32 222.6 841.9Q220.26 817.26 210.88 815.3ZM190.61 470.46L182.01 471.77L264.16 473.96L305.89 429.43Q278.7 436.37 287.1 400.88Q273.36 383.48 308.57 375.87Q281.51 373.73 277.74 402.38Q255.4 391.88 235.8 408.13Q232.19 396.48 226.23 371.57L212.89 405.24Q214.28 388.47 243.78 384.31Q227.28 377.97 257.91 395.37Q246.95 449.21 292.51 469.69Q251.54 458.7 266.84 452.01Q287.03 489.95 237.74 493.05Q214.43 488.15 206.13 438.34Q177.79 456.26 200.88 403.43Q186.02 431.95 196.11 390.24Q209.04 410.06 214.09 382.4Q218.6 376.77 210.35 375.39Q196.03 376.91 199.91 375.5Q175.03 370.45 206.03 385.35Q187.75 363.53 193.17 372.75Q160.64 404.99 188.45 400.73Q177.36 413.09 186.84 460.84ZM487.71 813.64Q478.77 787.96 481.6 795.46Q490.04 809.17 506.26 763.97Q510 763.05 515.32 787.13Q540.03 799.55 516.86 815.24Q531.8 842.58 524.76 839.4Q522.06 834.3 536.95 845.4Q528.86 892.75 501.73 898.1Q524.8 883.63 519.09 895.21Q481.49 888.31 456.3 868.18Q440.43 815.75 451.84 826.87Q470.13 806.64 435.9 806.38Q462.27 815 485.52 776.31ZM392 425.02Q383.63 393.29 388.07 385.96Q388.27 377.69 406.07 407.18Q434.49 402.59 440.03 397.35Q430.1 439.43 424.57 419.25Q443.51 452.32 434.68 457.31Q431.88 482.65 391.1 496.13Q397.58 470.47 382.08 480.7Q368.24 479.38 398.32 461.59Q377 460.95 386.52 472.49Q390.58 435.72 377.31 416.19Z" fill="black"></path></svg>