<?xml version="1.0" standalone="no"?>
<!DOCTYPE svg PUBLIC "-//W3C//DTD SVG 1.1//EN" "http://www.w3.org/Graphics/SVG/1.1/DTD/svg11.dtd" >
<svg xmlns="http://www.w3.org/2000/svg" xmlns:svg="http://www.w3.org/2000/svg" xmlns:xlink="http://www.w3.org/1999/xlink" viewBox="0 0 1024 1024"><path d="M75.0 257.5Q77.0 239.5 100.5 233.5Q124.0 227.5 194.0 227.5L284.0 228.5V205.5Q284.0 196.5 282.0 190.0Q280.0 183.5 277.0 183.5Q273.0 183.5 254.0 185.5Q235.0 187.5 210.0 191.5Q175.0 195.5 155.0 195.5Q141.0 195.5 128.0 192.5Q115.0 189.5 115.0 167.5Q115.0 149.5 125.0 141.5Q135.0 133.5 167.0 126.5Q196.0 120.5 280.5 110.0Q365.0 99.5 433.0 92.5Q460.0 88.5 474.0 87.5Q479.0 88.5 487.5 89.5Q496.0 90.5 504.0 99.5Q509.0 104.5 513.5 112.0Q518.0 119.5 518.0 124.5Q518.0 140.5 498.0 150.5Q478.0 160.5 430.0 165.5L365.0 174.5V225.5L441.0 228.5Q496.0 230.5 516.0 237.5Q536.0 244.5 536.0 258.5Q536.0 260.5 536.0 261.5Q536.0 263.5 536.0 264.5Q536.0 280.5 516.0 287.0Q496.0 293.5 439.0 295.5Q392.0 297.5 377.5 299.0Q363.0 300.5 363.0 307.5Q362.0 308.5 362.0 310.5Q362.0 315.5 375.0 318.0Q388.0 320.5 442.0 320.5Q486.0 320.5 505.5 322.5Q525.0 324.5 529.0 327.5Q532.0 339.5 532.0 371.5Q532.0 393.5 529.5 449.5Q527.0 505.5 520.0 531.5L509.0 552.5H435.0Q383.0 552.5 372.5 555.0Q362.0 557.5 362.0 564.5Q362.0 565.5 363.0 567.5Q363.0 576.5 372.0 579.0Q381.0 581.5 414.0 583.5Q462.0 585.5 477.5 590.0Q493.0 594.5 493.0 610.5Q495.0 617.5 495.0 623.5Q495.0 640.5 477.5 649.0Q460.0 657.5 399.0 657.5Q369.0 657.5 362.5 659.5Q356.0 661.5 356.0 669.5Q356.0 671.5 356.0 673.5Q356.0 680.5 358.0 685.0Q360.0 689.5 363.0 689.5Q432.0 689.5 486.5 695.0Q541.0 700.5 552.0 707.5Q562.0 719.5 562.0 734.5Q562.0 736.5 561.5 745.5Q561.0 754.5 549.0 759.5Q524.0 763.5 444.0 763.5Q391.0 763.5 256.5 760.5Q122.0 757.5 91.0 750.5Q80.0 739.5 80.0 727.5Q80.0 726.5 80.5 719.0Q81.0 711.5 93.0 698.5Q102.0 685.5 114.0 684.5Q126.0 683.5 142.0 683.5Q163.0 683.5 198.0 684.5Q222.0 684.5 239.0 684.5Q265.0 684.5 277.0 683.5Q289.0 682.5 289.0 673.5Q290.0 670.5 290.0 667.5Q290.0 657.5 280.0 655.5Q270.0 653.5 257.0 653.5Q243.0 653.5 221.0 655.5Q209.0 656.5 199.0 656.5Q169.0 656.5 152.0 648.5Q135.0 640.5 135.0 617.5Q135.0 595.5 152.5 587.5Q170.0 579.5 210.0 579.5Q218.0 579.5 228.0 579.5Q270.0 579.5 279.5 577.0Q289.0 574.5 289.0 569.5Q289.0 568.5 289.0 567.5Q289.0 559.5 275.0 558.0Q261.0 556.5 216.0 554.5Q209.0 554.5 202.0 554.5Q145.0 554.5 131.5 538.5Q118.0 522.5 115.0 442.5Q113.0 408.5 113.0 385.5Q113.0 364.5 115.5 346.0Q118.0 327.5 131.0 324.5Q136.0 322.5 160.5 321.5Q185.0 320.5 217.0 320.5Q248.0 320.5 268.5 319.5Q289.0 318.5 291.0 316.5L290.0 311.5Q288.0 307.5 286.0 304.5Q286.0 297.5 265.0 295.5Q244.0 293.5 183.0 293.5Q165.0 293.5 150.0 293.5Q102.0 293.5 87.5 289.0Q73.0 284.5 73.0 269.5Q73.0 264.5 75.0 257.5ZM595.0 309.5Q613.0 300.5 646.0 300.5H684.0L687.0 218.5Q687.0 174.5 690.0 151.5Q693.0 128.5 698.0 124.5Q707.0 113.5 716.5 113.0Q726.0 112.5 728.0 112.5Q744.0 112.5 754.0 122.5Q759.0 128.5 761.5 143.5Q764.0 158.5 764.0 180.5Q764.0 196.5 763.0 216.5L761.0 298.5L846.0 302.5Q898.0 302.5 917.5 305.0Q937.0 307.5 943.0 315.5Q950.0 318.5 950.5 333.0Q951.0 347.5 951.0 352.5Q951.0 382.5 946.0 457.5Q937.0 608.5 917.5 733.5Q898.0 858.5 876.0 903.5Q867.0 922.5 851.0 922.5Q847.0 922.5 833.0 918.5Q819.0 914.5 781.0 875.5Q757.0 849.5 754.0 837.5Q751.0 825.5 751.0 821.5Q751.0 807.5 763.0 797.5Q776.0 787.5 783.0 787.5Q784.0 787.5 788.0 788.0Q792.0 788.5 810.0 802.5Q817.0 810.5 822.0 814.5Q827.0 818.5 829.0 818.5Q830.0 818.5 831.0 817.5Q838.0 790.5 858.0 620.5Q878.0 450.5 880.0 383.5Q880.0 381.5 862.0 380.0Q844.0 378.5 817.0 378.5H752.0L745.0 412.5Q741.0 426.5 735.5 459.0Q730.0 491.5 725.0 527.5Q709.0 624.5 692.5 686.0Q676.0 747.5 666.0 757.5Q652.0 769.5 642.0 769.5Q642.0 769.5 636.5 769.0Q631.0 768.5 621.0 756.5Q611.0 746.5 611.0 730.5Q611.0 728.5 612.0 718.0Q613.0 707.5 630.0 649.5Q635.0 630.5 639.5 612.5Q644.0 594.5 644.0 588.5Q651.0 549.5 658.5 496.0Q666.0 442.5 669.0 415.5L673.0 379.5L633.0 376.5Q601.0 374.5 588.5 365.5Q576.0 356.5 576.0 334.5Q576.0 318.5 595.0 309.5ZM360.0 441.5V491.5L457.0 495.5L462.0 446.5Q464.0 426.5 464.0 411.5Q464.0 396.5 462.0 392.5Q455.0 387.5 432.0 387.0Q409.0 386.5 401.0 386.5Q377.0 386.5 365.0 388.5Q361.0 390.5 360.5 405.0Q360.0 419.5 360.0 441.5ZM92.0 900.5Q93.0 889.5 102.0 858.5Q108.0 840.5 115.0 824.5Q122.0 808.5 126.0 801.5Q135.0 788.5 143.5 787.5Q152.0 786.5 154.0 786.5Q166.0 786.5 176.0 797.5Q186.0 803.5 186.0 815.5Q186.0 816.5 185.5 823.5Q185.0 830.5 172.0 867.5Q158.0 916.5 144.0 926.5Q130.0 936.5 123.0 936.5Q110.0 936.5 99.0 920.5Q92.0 912.5 92.0 902.5Q92.0 901.5 92.0 900.5ZM327.0 797.5Q336.0 779.5 350.0 779.5Q353.0 779.5 364.5 783.0Q376.0 786.5 396.0 817.5Q401.0 828.5 411.0 839.0Q421.0 849.5 428.0 857.5Q445.0 872.5 445.0 885.5Q445.0 891.5 438.5 899.5Q432.0 907.5 410.0 907.5Q400.0 907.5 388.0 905.5Q374.0 902.5 365.0 893.5Q356.0 884.5 342.0 857.5Q327.0 830.5 325.5 822.5Q324.0 814.5 324.0 810.5Q324.0 803.5 327.0 797.5ZM226.0 801.5Q235.0 792.5 247.0 792.5Q248.0 792.5 255.0 793.0Q262.0 793.5 270.0 801.5Q280.0 815.5 287.5 849.0Q295.0 882.5 295.0 898.5Q295.0 902.5 295.0 905.5Q289.0 921.5 281.0 924.0Q273.0 926.5 268.0 926.5Q259.0 926.5 248.0 920.5Q230.0 903.5 224.5 873.5Q219.0 843.5 219.0 830.5Q219.0 811.5 226.0 801.5ZM185.0 446.5 189.0 495.5 288.0 491.5 289.0 451.5Q291.0 435.5 291.0 423.5Q291.0 403.5 286.0 394.5Q281.0 385.5 265.0 385.5Q262.0 385.5 259.0 385.5Q248.0 385.5 240.0 386.5L232.0 387.5Q232.0 388.5 236.5 394.0Q241.0 399.5 248.0 406.5Q270.0 429.5 270.0 449.5Q270.0 450.5 269.0 462.0Q268.0 473.5 243.0 475.5Q223.0 473.5 211.0 454.0Q199.0 434.5 199.0 419.5Q199.0 412.5 201.0 405.5Q202.0 400.5 202.0 396.5Q202.0 395.5 201.5 393.0Q201.0 390.5 196.0 388.5Q193.0 387.5 190.0 387.5Q184.0 387.5 183.0 394.0Q182.0 400.5 182.0 407.5Q182.0 421.5 185.0 446.5ZM464.0 790.5Q466.0 788.5 473.0 787.5Q480.0 786.5 489.0 786.5Q502.0 786.5 510.0 791.0Q518.0 795.5 527.0 808.5Q544.0 831.5 544.0 852.5Q544.0 855.5 542.5 869.0Q541.0 882.5 518.0 884.5Q509.0 884.5 500.0 877.0Q491.0 869.5 480.0 851.5Q464.0 828.5 461.5 818.0Q459.0 807.5 459.0 803.5Q459.0 795.5 464.0 790.5ZM384.0 425.5Q392.0 406.5 403.0 401.5Q411.0 399.5 417.0 399.5Q435.0 399.5 438.0 411.0Q441.0 422.5 441.0 427.5Q441.0 448.5 421.0 471.5Q416.0 474.5 410.0 474.5Q404.0 474.5 393.5 470.5Q383.0 466.5 378.0 455.5Q378.0 453.5 378.0 450.5Q378.0 440.5 384.0 425.5Z" fill="black"></path></svg>